<svg width="94" height="90" viewBox="0 0 94 90" fill="none" xmlns="http://www.w3.org/2000/svg">
<path d="M81.8243 28.4238H11.7916C10.1964 28.4238 8.87354 27.101 8.87354 25.5058C8.87354 23.9106 10.1964 22.5877 11.7916 22.5877H81.8243C83.4195 22.5877 84.7424 23.9106 84.7424 25.5058C84.7424 27.101 83.4195 28.4238 81.8243 28.4238Z" fill="#E9EAF1"/>
<path d="M81.8243 47.8774H11.7916C10.1964 47.8774 8.87354 46.5545 8.87354 44.9593C8.87354 43.3641 10.1964 42.0413 11.7916 42.0413H81.8243C83.4195 42.0413 84.7424 43.3641 84.7424 44.9593C84.7424 46.5545 83.4195 47.8774 81.8243 47.8774Z" fill="#E9EAF1"/>
<path d="M81.8243 67.3309H11.7916C10.1964 67.3309 8.87354 66.0081 8.87354 64.4129C8.87354 62.8177 10.1964 61.4948 11.7916 61.4948H81.8243C83.4195 61.4948 84.7424 62.8177 84.7424 64.4129C84.7424 66.0081 83.4195 67.3309 81.8243 67.3309Z" fill="#E9EAF1"/>
</svg>
